<?xml version="1.0" encoding="utf-8"?>
<!-- Generator: Adobe Illustrator 27.5.0, SVG Export Plug-In . SVG Version: 6.00 Build 0)  -->
<svg version="1.1" xmlns="http://www.w3.org/2000/svg" xmlns:xlink="http://www.w3.org/1999/xlink" x="0px" y="0px"
	viewBox="0 0 1122 1122" xml:space="preserve">
	<g id="Bg">
		<g>
			<g>
				<rect style="fill:transparent;" width="1122" height="1122" />
			</g>
		</g>
	</g>
	<g id="Object" transform-origin="561 561" transform="scale(0.8)">
		<g>
			<path style="fill:#616E7D;" d="M304.362,561c0,141.737,114.902,256.629,256.629,256.629
			c141.745,0,256.647-114.892,256.647-256.629c0-141.736-114.902-256.628-256.647-256.628
			C419.264,304.372,304.362,419.263,304.362,561z M792.285,561c0,127.738-103.553,231.295-231.294,231.295
			c-127.738,0-231.295-103.556-231.295-231.295c0-127.738,103.556-231.294,231.295-231.294
			C688.732,329.706,792.285,433.262,792.285,561z" />
			<path style="fill:#82BFAB;" d="M365.763,561c0,107.652,87.582,195.237,195.228,195.237c107.663,0,195.242-87.585,195.242-195.237
			c0-107.651-87.579-195.236-195.242-195.236C453.346,365.763,365.763,453.349,365.763,561z M572.29,443.747V567.27l95.75,99.393
			c5.508,5.704,5.335,14.806-0.378,20.313c-5.729,5.501-14.821,5.335-20.314-0.387L547.57,583.039
			c-2.581-2.693-4.012-6.249-4.012-9.968V443.747c0-7.937,6.433-14.364,14.365-14.364C565.853,429.383,572.29,435.81,572.29,443.747
			z" />
			<path style="fill:#AAD4C8;" d="M329.696,561c0,127.738,103.556,231.295,231.295,231.295
			c127.741,0,231.294-103.556,231.294-231.295c0-127.738-103.553-231.294-231.294-231.294
			C433.253,329.706,329.696,433.262,329.696,561z M756.233,561c0,107.652-87.579,195.237-195.242,195.237
			c-107.645,0-195.228-87.585-195.228-195.237c0-107.651,87.582-195.236,195.228-195.236
			C668.654,365.763,756.233,453.349,756.233,561z" />
			<path style="fill:#616E7D;" d="M557.923,429.383c-7.931,0-14.365,6.427-14.365,14.364v129.323c0,3.719,1.431,7.274,4.012,9.968
			l99.777,103.551c5.493,5.722,14.585,5.889,20.314,0.387c5.713-5.508,5.885-14.609,0.378-20.313l-95.75-99.393V443.747
			C572.29,435.81,565.853,429.383,557.923,429.383z" />
		</g>
	</g>
</svg>