<?xml version="1.0" encoding="utf-8"?>
<!-- Generator: Adobe Illustrator 27.5.0, SVG Export Plug-In . SVG Version: 6.00 Build 0)  -->
<svg version="1.1" xmlns="http://www.w3.org/2000/svg" xmlns:xlink="http://www.w3.org/1999/xlink" x="0px" y="0px"
	 viewBox="0 0 500 500" style="enable-background:new 0 0 500 500;" xml:space="preserve">
<g id="BACKGROUND">
	<rect style="fill:#FFFFFF;" width="500" height="500"/>
</g>
<g id="OBJECTS">
	<path style="fill:#EEF5FF;" d="M450.339,312.078c-29.028,80.177-56.679,76.031-56.679,76.031l-185.377-0.871l-109.082-0.512
		c0,0-71.884,27.651-67.737-38.703c1.2-19.181,11.176-35.821,24.493-51.791c0.5-0.6,1.006-1.2,1.518-1.8
		c11.235-13.199,24.628-25.981,37.068-39.421c23.904-25.816,44.315-54.044,39.221-92.236
		c-11.058-82.948,136.862-131.333,185.247-26.269S479.373,231.894,450.339,312.078z"/>
	<ellipse style="fill-rule:evenodd;clip-rule:evenodd;fill:#CEDDEF;" cx="250.119" cy="401.768" rx="218.589" ry="25.847"/>
	<g>
		<g>
			<g>
				<g>
					<path style="fill:#FFFFFF;" d="M185.035,353.223H48.067c-1.762,0-3.19-1.428-3.19-3.19v-81.205c0-1.762,1.428-3.19,3.19-3.19
						h136.969c1.762,0,3.19,1.428,3.19,3.19v81.205C188.225,351.795,186.797,353.223,185.035,353.223z"/>
					<path style="fill:#357DED;" d="M188.225,274.642H44.877v-5.813c0-1.762,1.428-3.19,3.19-3.19h136.969
						c1.762,0,3.19,1.428,3.19,3.19V274.642z"/>
				</g>
			</g>
			<g>
				<g>
					<path style="fill:#357DED;" d="M104.581,296.195l0.004,0.943l0.014,15.939c0,0.219,0.178,0.396,0.397,0.395l18.757-0.077
						v-15.668c0-0.367-0.299-0.665-0.666-0.663l-6.46,0.027l-7.361,0.03l-0.279-0.517l-0.357-0.661
						c-0.08-0.15-0.239-0.247-0.414-0.245l-3.155,0.012C104.794,295.712,104.581,295.927,104.581,296.195z"/>
				</g>
				<polygon style="fill:#FFFFFF;" points="126.294,299.404 106.375,299.404 104.995,312.876 124.914,312.876 				"/>
				<path style="fill:#357DED;" d="M105.257,313.703l20.203,0.082c0.271,0.001,0.488-0.171,0.542-0.427l1.976-9.706l0.46-2.256
					c0.084-0.405-0.273-0.826-0.7-0.827l-0.487-0.002l-19.717-0.08c-0.27-0.001-0.488,0.171-0.54,0.428l-2.302,11.302l-0.059,0.288
					l-0.075,0.372C104.473,313.282,104.829,313.701,105.257,313.703z"/>
				<polyline style="fill:none;" points="105.11,314.069 105.11,313.7 105.11,297.366 				"/>
			</g>
			<g>
				<g>
					<path style="fill:#93BBE5;" d="M144.222,296.195l0.004,0.943l0.014,15.939c0,0.219,0.178,0.396,0.397,0.395l18.757-0.077
						v-15.668c0-0.367-0.299-0.665-0.666-0.663l-6.46,0.027l-7.361,0.03l-0.279-0.517l-0.357-0.661
						c-0.08-0.15-0.239-0.247-0.414-0.245l-3.155,0.012C144.435,295.712,144.222,295.927,144.222,296.195z"/>
				</g>
				<polygon style="fill:#FFFFFF;" points="165.935,299.404 146.016,299.404 144.636,312.876 164.555,312.876 				"/>
				<path style="fill:#93BBE5;" d="M144.898,313.703l20.203,0.082c0.271,0.001,0.488-0.171,0.542-0.427l1.976-9.706l0.46-2.256
					c0.084-0.405-0.273-0.826-0.7-0.827l-0.487-0.002l-19.717-0.08c-0.27-0.001-0.488,0.171-0.54,0.428l-2.302,11.302l-0.059,0.288
					l-0.075,0.372C144.114,313.282,144.47,313.701,144.898,313.703z"/>
				<polyline style="fill:none;" points="144.751,314.069 144.751,313.7 144.751,297.366 				"/>
			</g>
			<g>
				<g>
					<path style="fill:#F89D13;" d="M104.581,323.597l0.004,0.943l0.014,15.939c0,0.219,0.178,0.396,0.397,0.395l18.757-0.077
						v-15.668c0-0.367-0.299-0.665-0.666-0.663l-6.46,0.027l-7.361,0.03l-0.279-0.517l-0.357-0.661
						c-0.08-0.15-0.239-0.247-0.414-0.245l-3.155,0.012C104.794,323.113,104.581,323.329,104.581,323.597z"/>
				</g>
				<polygon style="fill:#FFFFFF;" points="126.294,326.805 106.375,326.805 104.995,340.278 124.914,340.278 				"/>
				<path style="fill:#F89D13;" d="M105.257,341.105l20.203,0.082c0.271,0.001,0.488-0.171,0.542-0.427l1.976-9.706l0.46-2.256
					c0.084-0.405-0.273-0.826-0.7-0.827l-0.487-0.002l-19.717-0.08c-0.27-0.001-0.488,0.171-0.54,0.428l-2.302,11.302l-0.059,0.288
					l-0.075,0.372C104.473,340.684,104.829,341.103,105.257,341.105z"/>
				<polyline style="fill:none;" points="105.11,341.47 105.11,341.102 105.11,324.768 				"/>
			</g>
			<g>
				<g>
					<path style="fill:#93BBE5;" d="M144.222,323.597l0.004,0.943l0.014,15.939c0,0.219,0.178,0.396,0.397,0.395l18.757-0.077
						v-15.668c0-0.367-0.299-0.665-0.666-0.663l-6.46,0.027l-7.361,0.03l-0.279-0.517l-0.357-0.661
						c-0.08-0.15-0.239-0.247-0.414-0.245l-3.155,0.012C144.435,323.113,144.222,323.329,144.222,323.597z"/>
				</g>
				<polygon style="fill:#FFFFFF;" points="165.935,326.805 146.016,326.805 144.636,340.278 164.555,340.278 				"/>
				<path style="fill:#93BBE5;" d="M144.898,341.105l20.203,0.082c0.271,0.001,0.488-0.171,0.542-0.427l1.976-9.706l0.46-2.256
					c0.084-0.405-0.273-0.826-0.7-0.827l-0.487-0.002l-19.717-0.08c-0.27-0.001-0.488,0.171-0.54,0.428l-2.302,11.302l-0.059,0.288
					l-0.075,0.372C144.114,340.684,144.47,341.103,144.898,341.105z"/>
				<polyline style="fill:none;" points="144.751,341.47 144.751,341.102 144.751,324.768 				"/>
			</g>
			<g>
				<path style="fill:#93BBE5;" d="M82.903,286.78H55.415c-0.993,0-1.799-0.805-1.799-1.799l0,0c0-0.993,0.805-1.799,1.799-1.799
					h27.488c0.993,0,1.799,0.805,1.799,1.799l0,0C84.702,285.974,83.896,286.78,82.903,286.78z"/>
				<path style="fill:#93BBE5;" d="M82.903,299.67H55.415c-0.993,0-1.799-0.805-1.799-1.799l0,0c0-0.993,0.805-1.799,1.799-1.799
					h27.488c0.993,0,1.799,0.805,1.799,1.799l0,0C84.702,298.865,83.896,299.67,82.903,299.67z"/>
				<path style="fill:#93BBE5;" d="M82.903,312.561H55.415c-0.993,0-1.799-0.805-1.799-1.799l0,0c0-0.993,0.805-1.799,1.799-1.799
					h27.488c0.993,0,1.799,0.805,1.799,1.799l0,0C84.702,311.756,83.896,312.561,82.903,312.561z"/>
				<path style="fill:#93BBE5;" d="M82.903,325.452H55.415c-0.993,0-1.799-0.805-1.799-1.799l0,0c0-0.993,0.805-1.799,1.799-1.799
					h27.488c0.993,0,1.799,0.805,1.799,1.799l0,0C84.702,324.646,83.896,325.452,82.903,325.452z"/>
				<path style="fill:#93BBE5;" d="M82.903,338.342H55.415c-0.993,0-1.799-0.805-1.799-1.799l0,0c0-0.993,0.805-1.799,1.799-1.799
					h27.488c0.993,0,1.799,0.805,1.799,1.799l0,0C84.702,337.537,83.896,338.342,82.903,338.342z"/>
			</g>
			<path style="fill:#93BBE5;" d="M170.099,286.78H98.051c-0.993,0-1.799-0.805-1.799-1.799l0,0c0-0.993,0.805-1.799,1.799-1.799
				h72.049c0.993,0,1.799,0.805,1.799,1.799l0,0C171.898,285.974,171.092,286.78,170.099,286.78z"/>
		</g>
		<g>
			<g>
				<g>
					<path style="fill:#93BBE5;" d="M57.253,262.111l-7.505-7.55l-14.784-0.04l-0.096,32.18l22.317,0.054L57.253,262.111z"/>
					<polygon style="fill:#FFFFFF;" points="49.725,262.087 57.256,262.108 49.746,254.556 					"/>
				</g>
			</g>
			<g>
				
					<ellipse transform="matrix(0.2123 -0.9772 0.9772 0.2123 -229.2737 259.0186)" style="fill:#F89D13;" cx="46.022" cy="271.719" rx="5.794" ry="5.794"/>
				<g>
					<path style="fill:#FFFFFF;" d="M44.444,274.043l-0.983-2.272c-0.084-0.195,0.005-0.421,0.2-0.506
						c0.195-0.084,0.421,0.005,0.506,0.2l0.623,1.441l4.432-2.845c0.179-0.115,0.417-0.063,0.531,0.116
						c0.115,0.179,0.063,0.417-0.116,0.531L44.444,274.043z"/>
				</g>
			</g>
		</g>
	</g>
	<g>
		<path style="fill-rule:evenodd;clip-rule:evenodd;fill:#5C93BC;" d="M104.899,163.934l3.698-3.364l0.872-3.02
			c3.085-9.513,9.164-17.925,17.236-23.837l1.976-1.372l-3.698,3.364l-1.976,1.372C113.888,143.756,107.756,153.056,104.899,163.934
			 M188.759,144.917l3.698-3.364l0.361-20.749l-3.699,3.364L188.759,144.917z M210.909,116.967c-2.001-1.902-3.799-3.622-5.957-5.38
			c-26.681-21.729-65.572-23.967-93.406-3.361c2.323-1.291,4.417-2.463,6.849-3.586c28.488-13.164,62.567-8.146,85.891,12.911
			l2.925,2.779l2.005,2.005l3.698-3.364L210.909,116.967z"/>
		<path style="fill-rule:evenodd;clip-rule:evenodd;fill:#FF7200;" d="M183.55,212.114l3.698-3.364
			c-4.94,4.304-10.285,7.441-16.508,9.521l-0.663,0.216l-3.699,3.364C172.966,219.7,178.324,216.667,183.55,212.114
			 M301.462,137.891l3.699-3.364l2.428-18.503l-21.485-5.231l-3.699,3.364l21.485,5.231L301.462,137.891z"/>
		<polygon style="fill-rule:evenodd;clip-rule:evenodd;fill:#5C93BC;" points="282.405,114.157 286.104,110.793 285.878,110.971 
			285.654,111.151 285.429,111.331 285.205,111.512 284.981,111.694 284.758,111.877 284.536,112.061 284.314,112.246 
			284.093,112.432 283.872,112.619 283.652,112.806 279.953,116.17 280.173,115.982 280.394,115.796 280.616,115.61 
			280.838,115.425 281.06,115.241 281.283,115.058 281.507,114.876 281.73,114.695 281.955,114.514 282.18,114.335 		"/>
		<path style="fill-rule:evenodd;clip-rule:evenodd;fill:#5C93BC;" d="M301.388,207.434l-18.731,1.71l-3.699,3.364l18.731-1.709
			c2.576,2.349,4.559,4.02,7.538,5.903c20.857,13.188,48.875,8.487,64.075-11.239l0.526-0.695l3.698-3.364
			c-7.736,10.232-18.675,16.905-31.405,18.828c-13.927,2.104-28.277-1.92-38.939-11.161L301.388,207.434z M396.247,220.113
			c7.286-6.627,11.112-15.782,13.927-25.087l-18.159,7.178l-10.147-19.264l-3.698,3.364l10.147,19.263l18.16-7.178l-1.087,3.408
			C403.084,208.49,400.161,214.228,396.247,220.113z"/>
		<path style="fill-rule:evenodd;clip-rule:evenodd;fill:#236CD8;" d="M407.844,193.061l3.698-3.364l0.899-4.786
			c5.039-32.241-10.132-64.399-38.591-80.609c-24.771-14.109-55.815-13.655-80.147,1.206l-2.898,1.859l-3.698,3.364
			c3.108-1.994,5.538-3.503,8.878-5.16c28.945-14.358,64.258-9.568,88.187,12.301c20.168,18.431,29.197,45.988,24.159,72.802
			L407.844,193.061z"/>
		<path style="fill-rule:evenodd;clip-rule:evenodd;fill:#5C93BC;" d="M293.591,206.714l3.699-3.364l-30.919-30.893l-3.516,3.516
			L293.591,206.714z M274.208,230.37l3.698-3.364l0.382-21.922l-3.699,3.364L274.208,230.37z M216.999,123.056l-19.812,1.808
			l-3.699,3.364l19.812-1.808l28.034,28.033l3.531-3.531L216.999,123.056z"/>
		<path style="fill-rule:evenodd;clip-rule:evenodd;fill:#236CD8;" d="M180.279,249.204l3.698-3.364l3.036-17.934l-26.247-7.436
			c-8.676,0.859-16.824-0.205-24.857-3.688c-19.487-8.448-30.87-28.623-28.506-49.654l0.173-1.366l-17.005,6.722l-11.053-20.983
			l-3.699,3.364l11.053,20.983l17.005-6.722c-0.153,0.295-0.442,4.785-0.461,5.483c-0.804,28.963,23.496,51.817,52.324,49.357
			l1.327-0.131l26.247,7.436L180.279,249.204z"/>
		<path style="fill-rule:evenodd;clip-rule:evenodd;fill:#71A3D1;" d="M117.442,141.85c18.726-18.726,49.523-18.726,68.249,0
			l3.067,3.067l0.361-20.748l20.095-1.834l-2.005-2.005c-30.604-30.604-80.684-30.604-111.288,0
			c-8.345,8.346-14.416,18.14-18.21,28.593l11.23,21.319l15.956-6.307C106.96,155.819,111.141,148.151,117.442,141.85"/>
		<path style="fill-rule:evenodd;clip-rule:evenodd;fill:#357DED;" d="M117.442,210.1c-11.094-11.094-15.616-26.425-13.565-40.973
			l-17.005,6.722l-11.053-20.983c-7.292,26.461-0.59,56.059,20.103,76.752c22.702,22.702,56.121,28.564,84.357,17.586l3.036-17.933
			l-26.247-7.436C142.926,225.43,128.195,220.851,117.442,210.1"/>
		<polygon style="fill-rule:evenodd;clip-rule:evenodd;fill:#71A3D1;" points="241.335,197.496 274.208,230.37 274.59,208.448 
			293.591,206.714 262.854,175.973 		"/>
		<polygon style="fill-rule:evenodd;clip-rule:evenodd;fill:#71A3D1;" points="241.334,154.454 213.3,126.42 193.489,128.228 
			193.122,149.281 219.815,175.977 		"/>
		<path style="fill-rule:evenodd;clip-rule:evenodd;fill:#357DED;" d="M306.381,134.542c18.505-10.975,42.998-8.539,58.845,7.308
			c10.053,10.053,14.709,23.585,13.968,36.861l11.194,21.25l17.457-6.9c5.585-25.398-1.448-53.079-21.1-72.73
			c-26.973-26.973-69.075-30.173-99.638-9.6l21.704,5.285L306.381,134.542z"/>
		<path style="fill-rule:evenodd;clip-rule:evenodd;fill:#71A3D1;" d="M365.225,210.1c-18.49,18.49-48.749,18.723-67.536,0.698
			l-18.731,1.709l-0.384,22.064c30.797,27.618,78.585,26.634,108.17-2.952c9.569-9.569,16.147-21.042,19.732-33.229l-18.16,7.178
			l-10.147-19.263C376.282,195.05,371.968,203.357,365.225,210.1"/>
		<path style="fill-rule:evenodd;clip-rule:evenodd;fill:#FFA000;" d="M207.211,231.619l34.124-34.123l21.519-21.523l34.123-34.123
			c1.428-1.428,2.927-2.748,4.486-3.959l2.428-18.503l-21.485-5.232c-2.409,1.897-4.73,3.955-6.948,6.174l-34.123,34.123
			l-21.52,21.523L185.691,210.1c-5.579,5.579-12.229,9.496-19.313,11.751l21.987,6.229l-3.223,19.043
			C193.141,243.37,200.626,238.203,207.211,231.619"/>
	</g>
	<g>
		<ellipse style="fill:#BCCDDD;" cx="232.672" cy="408.81" rx="95.407" ry="11.482"/>
		<g>
			<g>
				<path style="fill:#FFFFFF;" d="M238.056,353.814l15.601,14.112l12.684-9.086l7.681,9.086c15.703-3.99,26.88-8.988,35.966-14.451
					l-9.921-6.102l-32.807-3.641L238.056,353.814z"/>
				<path style="fill:#F89D13;" d="M216.746,301.791c6.364,0.595,12.728,1.19,19.092,1.785l5.289-19.594l0.95,33.32l-3.213,35.234
					c1.642,12.231,70.302,7.817,71.123,0.939c1.575-13.191-0.048-23.907,0-28.132c4.521-0.441,16.058-3.958,15.714-13.214
					c-0.741-19.94-5.932-59.868-19.398-67.95c-6.638-3.816-21.467-7.197-21.467-7.197l-24.157-0.162
					c-6.572,0.928-16.879,3.52-23.728,11.898c-3.579,4.378-4.868,8.69-5.724,11.486
					C228.234,269.979,223.794,283.252,216.746,301.791z"/>
				<path style="fill:#FFFFFF;" d="M269.836,250.352l-5.543,6.953c-5.36-6.546-5.564-13.769-5.543-19.645l2.378-3.951l0.479,3.236
					C263.036,242.66,269.836,250.352,269.836,250.352z"/>
				<polygon style="fill:#F89D13;" points="309.987,325.343 270.583,329.472 259.203,335.437 310.477,334.3 				"/>
				<path style="fill:#A36D4F;" d="M252.724,314.73c2.562-0.837,4.343,1.738,6.479,1.186c2.136-0.553,5.591-1.757,6.812-1.186
					c2.166,1.013,3.699,11.88,0,13.311c-3.699,1.431-14.113,1.67-14.113,1.67s-5.823-3.842-5.467-4.368
					C246.79,324.816,252.724,314.73,252.724,314.73z"/>
				<path style="fill:#FFFFFF;" d="M272.059,250.003l5.543,6.953c5.36-6.546,5.564-13.769,5.543-19.645l-2.378-3.95l-0.479,3.236
					C278.858,242.312,272.059,250.003,272.059,250.003z"/>
				<path style="fill:none;stroke:#D17E11;stroke-width:1.5353;stroke-miterlimit:10;" d="M296.249,266.082v34.772l-30.234,13.876
					c0,0,6.837,18.256,1.244,29.001"/>
				<g>
					<g>
						<path style="fill:#363435;" d="M257.651,209.57c0,0-3.938-3.533-2.384-5.703c11.421-15.951,41.403-3.868,24.393,21.485
							C273.467,232.236,261.926,211.596,257.651,209.57z"/>
					</g>
					<g>
						<path style="fill:#A66534;" d="M257.539,205.956c0,0-1.121,12.67,0.064,17.851c1.102,4.815,4.536,7.529,5.753,7.694
							l-1.757,10.303c0,0,7.551,7.16,9.629,7.555c2.078,0.395,8.853-8.972,8.853-8.972l-1.163-18.256
							c0.787-0.541,6.381-1.662,5.53-5.916c-0.568-2.843-4.185-2.152-5.956-0.938c0.11-1.445-1.779-2.234-2.606-6.936
							C275.059,203.636,264.957,205.961,257.539,205.956z"/>
					</g>
					<g>
						<path style="fill:#965B2F;" d="M263.356,231.501c0,0,9.551,3.673,14.712-5.817c0,0-1.162,11.657-15.302,9.079L263.356,231.501
							z"/>
					</g>
					<g>
						<path style="fill:#754725;" d="M279.399,218.949c-0.127,0-0.248-0.076-0.299-0.201c-0.068-0.165,0.011-0.354,0.176-0.421
							l3.63-1.487c0.165-0.068,0.354,0.011,0.421,0.176c0.068,0.165-0.011,0.354-0.176,0.421l-3.63,1.487
							C279.481,218.941,279.44,218.949,279.399,218.949z"/>
					</g>
					<g>
						<path style="fill:#754725;" d="M265.472,220.785c-0.906,0-2.599-0.132-2.743-1.11c-0.149-1.017,1.655-5.064,2.019-5.864
							c0.074-0.162,0.265-0.234,0.428-0.161c0.162,0.074,0.234,0.265,0.161,0.428c-0.811,1.787-2.062,4.862-1.968,5.504
							c0.059,0.402,1.389,0.61,2.544,0.546c0.179-0.01,0.331,0.126,0.34,0.305c0.01,0.178-0.126,0.33-0.305,0.34
							C265.852,220.778,265.683,220.785,265.472,220.785z"/>
					</g>
					<g>
						<path style="fill:#363435;" d="M260.036,215.106c-0.022,0.578,0.386,1.062,0.91,1.081c0.524,0.02,0.967-0.433,0.988-1.011
							c0.022-0.578-0.386-1.062-0.91-1.081C260.5,214.076,260.057,214.528,260.036,215.106z"/>
					</g>
					<g>
						<path style="fill:#754725;" d="M271.757,211.969c-0.109,0-0.216-0.055-0.277-0.156c-0.256-0.422-0.589-0.676-1.018-0.776
							c-1.054-0.246-2.282,0.527-2.294,0.535c-0.15,0.096-0.35,0.052-0.446-0.099c-0.096-0.15-0.052-0.35,0.099-0.446
							c0.06-0.038,1.475-0.925,2.787-0.62c0.599,0.14,1.078,0.5,1.424,1.07c0.092,0.153,0.044,0.351-0.109,0.444
							C271.871,211.954,271.814,211.969,271.757,211.969z"/>
					</g>
					<g>
						<path style="fill:#754725;" d="M262.202,211.293c-0.076,0-0.153-0.027-0.214-0.081l0,0c-0.007-0.006-0.705-0.617-1.376-0.545
							c-0.281,0.03-0.517,0.18-0.722,0.457c-0.106,0.143-0.308,0.174-0.452,0.068c-0.144-0.106-0.174-0.308-0.068-0.451
							c0.314-0.426,0.71-0.667,1.176-0.716c0.952-0.101,1.833,0.672,1.87,0.705c0.133,0.118,0.145,0.323,0.027,0.456
							C262.379,211.257,262.291,211.293,262.202,211.293z"/>
					</g>
					<g>
						<path style="fill:#703123;" d="M269.009,222.684c-4.767,1.136-7.076,0.206-7.076,0.206s0.335,3.196,3.277,3.484
							C269.42,226.787,269.009,222.684,269.009,222.684z"/>
					</g>
					<g>
						<path style="fill:#FFFFFF;" d="M262.116,222.951c0,0,0.221,0.591,0.29,0.711c0.071,0.116,0.606,0.463,2.651,0.592
							c1.73,0.111,3.427-0.394,3.905-0.551c0.091-0.577,0.046-1.018,0.046-1.018c-0.278,0.068-0.549,0.124-0.812,0.177
							c-3.485,0.705-5.486,0.263-6.077,0.089C262.116,222.951,262.116,222.951,262.116,222.951z"/>
					</g>
					<g>
						<path style="fill:#363435;" d="M267.98,215.71c-0.022,0.595,0.398,1.094,0.938,1.114c0.54,0.02,0.996-0.446,1.018-1.041
							c0.022-0.595-0.398-1.094-0.938-1.114C268.458,214.649,268.002,215.115,267.98,215.71z"/>
					</g>
				</g>
			</g>
			<g>
				<g>
					<path style="fill:#93BBE5;" d="M195.315,352.428l-20.937-53.834c-1.853-4.63,1.471-9.705,6.356-9.705h65.229
						c2.943,0,5.56,1.921,6.506,4.776l17.986,54.3l21.004,0.103c1.706,0.008,3.085,2.565,3.085,4.313l0,0l-23.12-0.273
						L195.315,352.428z"/>
				</g>
				<g>
					<path style="fill:#FFFFFF;" d="M226.257,319.797c0.381,3.921-2.824,7.066-7.187,7.179c-4.41,0.113-8.608-2.903-9.363-6.896
						c-0.789-4.177,2.474-7.738,7.27-7.775C221.719,312.267,225.859,315.699,226.257,319.797z"/>
				</g>
			</g>
			<g>
				<polygon style="fill:#153D68;" points="243.282,388.332 256.483,399.545 242.416,401.534 227.953,394.435 				"/>
				<g>
					<g>
						<g>
							<g>
								<path style="fill:#153D68;" d="M158.518,328.728c0,0-10.004,3.572-10.045,14.789c-0.08,21.486,43.414,45.17,43.414,45.17
									l57.88-38.351l3.628-1.468C253.394,348.87,175.261,319.52,158.518,328.728z"/>
							</g>
						</g>
					</g>
					<path style="fill:#357DED;" d="M202.432,391.751c0,0-27.258-5.814-35.957-1.605c-8.7,4.21-21.471,9.102-17.161,12.241
						c4.311,3.139,20.22,7.394,29.409,6.563c3.28-0.297,7.894-0.793,12.482-1.508c0.265,0.032,0.51,0.05,0.726,0.05
						c0.189,0,0.353-0.086,0.495-0.246c7.833-1.292,15.234-3.231,15.357-5.916C207.984,396.938,202.432,391.751,202.432,391.751z"/>
					<g>
						<g>
							<g>
								<path style="fill:#184785;" d="M186.406,391.298c0,0,81.777-53.64,85.126-54.757c3.348-1.116,11.441-6.418,19.533-4.186
									c8.092,2.232,15.348,9.488,18.975,20.091c2.072,6.057,3.052,16.395,3.511,24.145c0.549,9.268-2.32,18.509-8.383,25.541
									c-2.758,3.2-6.16,5.983-10.197,7.239c-0.852,0.265-1.735,0.494-2.643,0.691c-15.462,3.352-31.351-3.588-40.038-16.811
									l-1.908-2.904c0,0-53.496,19.653-54.333,19.374L186.406,391.298z"/>
							</g>
						</g>
					</g>
				</g>
				<g>
					<g>
						<path style="fill:#357DED;" d="M247.719,394.777c0,0-24.282-8.382-30.321-6.437c-6.04,1.945,4.16,16.392,22.338,17.552
							s27.542-3.123,26.286-8.764C264.766,391.488,247.719,394.777,247.719,394.777z"/>
						<path style="fill:#236CD8;" d="M247.429,397.855c0,0-24.282-8.382-30.321-6.437c-6.04,1.945,4.159,16.392,22.338,17.552
							s27.542-3.123,26.286-8.764C264.476,394.566,247.429,397.855,247.429,397.855z"/>
					</g>
				</g>
			</g>
		</g>
	</g>
	<g>
		<ellipse style="fill:#BCCDDD;" cx="357.748" cy="395.769" rx="33.424" ry="7.857"/>
		<g>
			<g>
				<path style="fill:#307175;" d="M385.77,238.255c-0.044-0.323-0.438-0.569-0.742-0.564c-7.265,0.118-16.372,0.139-22.525,4.63
					c-5.732,4.184-6.592,11.571-6.463,18.15c0.014,0.705,0.793,0.901,1.237,0.601c0.021,0.008,0.034,0.027,0.055,0.035
					C372.606,266.819,387.936,254.272,385.77,238.255z"/>
				<path style="fill:#2F7D7F;" d="M350.583,267.979c0.058-5.057-1.118-10.172-5.002-13.684c-4.454-4.025-10.895-6.322-16.16-9.054
					c-0.535-0.276-1.396,0.199-1.131,0.87c2.381,6.058,2.047,13.461,6.253,18.722c3.575,4.474,9.618,5.984,14.988,4.331
					c0.272-0.084,0.421-0.269,0.49-0.478C350.322,268.61,350.579,268.38,350.583,267.979z"/>
				<path style="fill:#2F7D7F;" d="M397.549,284.46c-3.573-2.77-8.177-2.488-12.501-2.299c-4.794,0.209-9.616,0.943-13.985,3.019
					c-7.607,3.618-12.958,11.609-10.205,20.065c-0.068,0.357,0.069,0.758,0.511,0.898c7.254,2.296,10.757-2.549,15.124-7.371
					c5.595-6.179,12.772-10.579,20.716-13.026C397.706,285.595,398.034,284.836,397.549,284.46z"/>
				<path style="fill:#2F7D7F;" d="M414.907,302.528c-0.092-0.031-0.185-0.077-0.277-0.123c-3.08-1.323-5.836-3.834-8.638-6.251
					c0-0.017-0.016-0.017-0.031-0.032c-3.065-2.647-6.19-5.158-9.84-5.819c-0.031-0.016-0.061-0.016-0.092-0.016
					c-1.679-0.308-3.465-0.2-5.42,0.446c-7.761,2.588-12.533,10.672-13.303,18.447c-0.016,0.185,0.046,0.338,0.122,0.447
					c-0.015,0.045-0.03,0.076-0.046,0.122c-0.123,0.431,0.108,1.001,0.693,1.077c6.651,0.786,13.18,0.017,19.693-1.356
					c5.774-1.216,12.303-2.2,17.323-5.541C415.677,303.545,415.523,302.774,414.907,302.528z"/>
				<path style="fill:#2F7D7F;" d="M403.355,317.417c-8.49-1.701-26.039-6.024-27.237,7.513c-0.038,0.434,0.241,0.665,0.569,0.716
					c7.708,9.044,22.694,1.869,27.127-7.098C404.02,318.135,403.874,317.521,403.355,317.417z"/>
				<path style="fill:#307175;" d="M349.538,290.193c-2.252-4.986-7.486-10.139-12.635-12.017c-0.475-0.172-0.979,0.274-0.976,0.743
					c0.085,9.824-2.324,25.288,8.361,30.722c0.078,0.039,0.152,0.049,0.226,0.063c0.285,0.426,0.976,0.586,1.3,0.007
					C349.112,303.816,352.578,296.919,349.538,290.193z"/>
				<path style="fill:#2F7D7F;" d="M321.712,296.445c-5.222-4.267-13.464-5.193-19.536-2.109c-8.42,4.275-6.911,14.422-8.193,22.238
					c-0.125,0.755,0.68,1.28,1.286,0.75c8.324-7.301,19.932-10.168,26.284-19.729l0.001-0.001
					C321.958,297.354,322.172,296.822,321.712,296.445z"/>
				<path style="fill:#307175;" d="M321.764,304.18c-0.24-0.366-0.633-0.408-0.952-0.278c-0.213-0.272-0.573-0.424-0.961-0.213
					c-4.17,2.289-9.061,5.487-9.883,10.532c-0.98,6.014,2.399,11.884,2.782,17.809c0.052,0.814,1.343,1.109,1.512,0.206
					c1.069-5.694,6.97-8.289,9.139-13.41C325.186,314.608,324.244,307.97,321.764,304.18z"/>
				<path style="fill:#307175;" d="M347.5,339.117c-4.901-6.88-9.94-12.762-18.451-14.918c-0.617-0.157-1.256,0.55-0.869,1.131
					c1.916,2.882,1.878,6.149,3.483,9.055c0.949,1.721,2.513,3.007,4.15,4.042c3.628,2.294,8.307,4.375,12.354,2.057
					C348.989,340.012,348.314,338.792,347.5,339.117z"/>
				<path style="fill:#2F7D7F;" d="M358.55,330.993c-0.019-0.073-0.035-0.146-0.082-0.221c-3.368-5.377-3.517-12.211-8.167-16.839
					c-0.36-0.358-0.948-0.264-1.209,0.155c-2.28,3.651-3.383,8.036-1.572,12.129c1.961,4.428,6.086,5.638,10.575,6.102
					C358.886,332.4,359.027,331.434,358.55,330.993z"/>
				<path style="fill:#2F7D7F;" d="M367.994,270.892c-0.958-0.802-2.24-0.006-3.188,0.399c-1.783,0.757-3.526,1.633-5.085,2.793
					c-2.914,2.17-4.913,5.246-5.095,8.876c-0.023,0.091-0.029,0.183-0.018,0.28c-0.002,0.106-0.02,0.207-0.019,0.315
					c0.005,0.874,1.204,0.975,1.479,0.303c3.728-0.815,6.676-3.219,9.119-6.099C366.31,276.438,370.237,272.769,367.994,270.892z"/>
				<path style="fill:#2F7D7F;" d="M369.683,331.609c-0.117-0.111-0.21-0.237-0.325-0.35c0.958-6.568,1.366-14.176-5.101-18.037
					c-0.421-0.252-1.008-0.02-1.131,0.46c-1.777,6.946,0.262,14.084,5.468,19.016C369.314,333.38,370.404,332.293,369.683,331.609z"
					/>
				<path style="fill:#307175;" d="M414.245,301.758c-2.848-1.262-5.528-3.45-8.252-5.604c0-0.017-0.016-0.017-0.031-0.032
					c-3.126-2.477-6.298-4.91-9.84-5.819c-0.031-0.016-0.061-0.016-0.092-0.016c-1.679-0.308-3.465-0.2-5.42,0.446
					c-7.761,2.588-12.533,10.672-13.303,18.447c-0.016,0.185,0.046,0.338,0.122,0.447c-0.015,0.045-0.03,0.076-0.046,0.122
					c0.262-0.015,0.509-0.138,0.662-0.369c0.154-0.031,0.293-0.077,0.416-0.215c2.525-2.696,5.22-5.204,7.868-7.776
					c1.278-1.232,2.525-2.788,3.973-3.819c3.079-2.202,5.727-1.786,8.961-0.848c3.865,1.125,7.391,3.127,10.902,5.052
					c1.309,0.737,2.587,1.986,4.08,1.308c0.262-0.108,0.385-0.4,0.385-0.677C414.63,302.126,414.492,301.865,414.245,301.758z"/>
				<path style="fill:#245E5E;" d="M346.065,327.679c-0.734-2.987-1.556-6.011-2.569-8.967c0.01-0.025,0.028-0.042,0.036-0.069
					c1.384-4.731,1.911-9.54,1.629-14.33c0.257-0.042,0.498-0.196,0.597-0.516c0.89-2.83,1.263-5.716,1.123-8.68
					c-0.047-0.986-1.587-0.992-1.54,0c0.098,2.051-0.07,4.054-0.487,6.029c-0.31-2.28-0.79-4.549-1.48-6.799
					c-0.29-0.946-1.777-0.541-1.484,0.409c2.173,7.083,2.387,14.291,0.681,21.418c-1.44-3.672-3.25-7.178-5.676-10.285
					c-5.704-7.301-16.074-11.737-24.286-8.297c-0.02-0.282-0.187-0.543-0.546-0.63c-3.184-0.765-6.381-0.285-9.189,1.405
					c-0.848,0.511-0.074,1.842,0.778,1.328c2.286-1.374,4.831-1.838,7.419-1.357c-1.9,1.073-3.652,2.613-5.157,4.703
					c-0.581,0.806,0.754,1.575,1.329,0.778c3.935-5.461,11.095-7.181,17.361-5.145c1.823,0.592,3.498,1.453,5.05,2.496
					c-6.563-0.137-11.537,4.258-16.024,8.629c-0.711,0.692,0.378,1.781,1.088,1.088c0.893-0.868,1.801-1.74,2.735-2.574
					c-0.255,1.55-0.308,3.114-0.143,4.698c0.102,0.975,1.643,0.986,1.54,0c-0.212-2.024-0.074-3.998,0.441-5.968
					c0.028-0.106,0.027-0.201,0.016-0.294c3.173-2.506,6.719-4.331,11.073-4.021c0.406,0.029,0.635-0.215,0.707-0.516
					c3.494,2.757,6.239,6.501,8.231,10.46c3.961,7.871,6.219,16.869,7.497,25.88c-3.185-0.824-5.96-2.486-8.191-4.93
					c-0.669-0.733-1.756,0.358-1.088,1.088c1.123,1.231,2.393,2.276,3.77,3.139c-0.888-0.003-1.775-0.046-2.658-0.185
					c-0.968-0.151-1.386,1.332-0.409,1.484c1.476,0.231,2.944,0.316,4.436,0.222c0.32-0.021,0.526-0.203,0.639-0.431
					c1.135,0.523,2.328,0.94,3.575,1.225c0.054,0.013,0.099,0.002,0.15,0.004c0.563,4.366,0.904,8.719,1.104,12.932
					c0.047,0.988,1.587,0.993,1.54,0C349.278,344.529,348.116,336.018,346.065,327.679z"/>
				<path style="fill:#245E5E;" d="M371.616,296.027c-1.387,1.006-2.706,2.076-3.969,3.201c0.741-2.73,1.904-5.265,3.555-7.609
					c0.571-0.813-0.763-1.582-1.33-0.778c-2.013,2.859-3.384,6.03-4.094,9.453c-0.048,0.231,0.005,0.426,0.108,0.583
					c-3.429,3.355-6.356,7.164-8.722,11.405c-0.42-5.308-0.767-10.622-1.026-15.942c-0.183-3.779-0.476-8.008-0.585-12.364
					c1.783-2.401,3.667-4.764,6.435-6.063c0.897-0.421,0.115-1.749-0.777-1.33c-2.347,1.104-4.112,2.931-5.694,4.92
					c-0.012-2.043,0.024-4.097,0.148-6.14c0.122-0.209,0.152-0.462,0.043-0.708c0.771-10.87,4.036-21.144,14.447-25.944
					c0.9-0.415,0.118-1.742-0.777-1.33c-2.636,1.215-4.827,2.768-6.648,4.58c-0.085-1.493,0.157-2.959,0.709-4.372
					c0.36-0.925-1.128-1.325-1.485-0.41c-0.781,1.999-0.958,4.075-0.62,6.189c0.005,0.035,0.023,0.053,0.032,0.084
					c-4.431,5.286-6.261,12.346-6.925,19.661c-2.231-2.588-4.463-5.179-6.693-7.769c0.216-0.109,0.375-0.318,0.354-0.643
					c-0.139-2.164-0.818-4.186-2.071-5.965c-0.565-0.803-1.901-0.035-1.329,0.778c0.926,1.315,1.505,2.759,1.743,4.321
					c-0.829-0.962-1.658-1.925-2.487-2.885c-0.648-0.753-1.733,0.34-1.089,1.088c3.804,4.414,7.607,8.826,11.411,13.24
					c-0.165,2.693-0.187,5.397-0.149,8.044c-0.035,0.046-0.069,0.092-0.103,0.137c-0.259,0.351-0.138,0.687,0.119,0.897
					c0.052,2.592,0.155,5.123,0.251,7.505c0.492,12.278,1.43,24.531,2.771,36.739c-2.774-1.531-4.296-4.414-5.678-7.181
					c-0.443-0.887-1.772-0.109-1.33,0.776c1.586,3.174,3.402,6.493,6.773,8.036c0.144,0.065,0.283,0.074,0.415,0.06
					c0.885,7.841,1.938,15.662,3.158,23.461c0.153,0.975,1.636,0.561,1.485-0.41c-2.003-12.803-3.545-25.671-4.626-38.582
					c0.138-0.056,0.269-0.149,0.359-0.324c3.527-6.803,8.46-12.579,14.666-17.08C373.187,296.78,372.419,295.444,371.616,296.027z"
					/>
				<path style="fill:#245E5E;" d="M397.093,297.241c-3.238-0.06-6.19,0.714-8.871,2.048c1.141-1.216,2.367-2.347,3.697-3.365
					c0.776-0.593,0.01-1.932-0.777-1.329c-2.585,1.977-4.824,4.267-6.735,6.902c-0.075,0.102-0.116,0.206-0.134,0.305
					c-5.208,4.087-9.06,10.33-11.456,16.287c-1.456,3.618-2.533,7.36-3.372,11.169c-0.859-1.444-1.339-3.06-1.874-4.654
					c-0.426-1.27-0.814-2.425-1.994-3.164c-0.843-0.528-1.617,0.805-0.777,1.329c1.244,0.779,1.534,3.036,1.984,4.331
					c0.437,1.259,0.922,2.454,1.696,3.546c0.159,0.225,0.378,0.316,0.599,0.329c-1.866,9.306-2.382,18.981-3.277,28.303
					c-0.095,0.985,1.446,0.979,1.54,0c0.832-8.678,1.369-17.552,2.941-26.186c0.112-0.036,0.221-0.095,0.321-0.206
					c2.908-3.212,5.925-6.444,9.594-8.676c1.107,1.027,2.394,1.803,3.834,2.294c0.939,0.32,1.343-1.167,0.409-1.484
					c-1.046-0.358-1.99-0.895-2.825-1.591c1.02-0.52,2.077-0.986,3.211-1.326c0.948-0.284,0.544-1.771-0.409-1.484
					c-1.492,0.447-2.878,1.064-4.187,1.794c-0.235,0.013-0.446,0.155-0.588,0.353c-3.325,1.979-6.147,4.717-8.816,7.603
					c0.512-2.424,1.093-4.831,1.826-7.198c1.486-4.8,3.84-10.117,7.117-14.56c0.029-0.005,0.052,0,0.082-0.008
					c1.753-0.585,3.538-0.999,5.369-1.246c0.977-0.131,0.561-1.616-0.409-1.486c-1.149,0.155-2.275,0.4-3.39,0.687
					c4.019-4.639,9.212-7.897,15.673-7.776C398.084,298.801,398.084,297.262,397.093,297.241z"/>
			</g>
			<g>
				<polygon style="fill:#F89D13;" points="384.251,345.219 383.028,352.849 380.827,366.516 376.041,396.308 341.015,396.308 
					336.229,366.516 334.03,352.849 332.806,345.219 				"/>
				<polygon style="fill:#D17E11;" points="347.429,352.849 346.206,345.219 332.806,345.219 334.03,352.849 336.229,366.516 
					341.015,396.308 354.415,396.308 349.629,366.516 				"/>
			</g>
		</g>
	</g>
	<g>
		<path style="fill:#A9CBF7;" d="M447.169,351.118h-3.361v-3.373c0-0.726-0.589-1.31-1.316-1.31c-0.729,0-1.313,0.583-1.313,1.31
			v3.373h-3.364c-0.726,0-1.313,0.577-1.313,1.304c0,0.726,0.586,1.322,1.313,1.322h3.364v3.358c0,0.726,0.583,1.319,1.313,1.319
			c0.726,0,1.316-0.593,1.316-1.319v-3.358h3.361c0.726,0,1.316-0.595,1.316-1.322C448.485,351.696,447.896,351.118,447.169,351.118
			z"/>
		<path style="fill:#A9CBF7;" d="M36.392,233.278h-3.361v-3.373c0-0.726-0.589-1.31-1.316-1.31c-0.729,0-1.313,0.583-1.313,1.31
			v3.373h-3.364c-0.726,0-1.313,0.577-1.313,1.304c0,0.726,0.587,1.322,1.313,1.322h3.364v3.358c0,0.726,0.583,1.319,1.313,1.319
			c0.726,0,1.316-0.593,1.316-1.319v-3.358h3.361c0.726,0,1.316-0.595,1.316-1.322C37.708,233.855,37.119,233.278,36.392,233.278z"
			/>
		<g>
			<path style="fill:#A9CBF7;" d="M411.738,352.428c0,3.236,2.634,5.871,5.868,5.871c3.236,0,5.868-2.635,5.868-5.871
				c0-3.233-2.632-5.871-5.868-5.871C414.373,346.557,411.738,349.195,411.738,352.428z M413.989,352.428
				c0-1.995,1.622-3.62,3.617-3.62c1.997,0,3.617,1.625,3.617,3.62c0,1.998-1.62,3.617-3.617,3.617
				C415.611,356.045,413.989,354.426,413.989,352.428z"/>
		</g>
		<g>
			<path style="fill:#A9CBF7;" d="M409.591,256.956c0,3.236,2.634,5.871,5.868,5.871c3.236,0,5.868-2.635,5.868-5.871
				c0-3.233-2.632-5.871-5.868-5.871C412.225,251.086,409.591,253.723,409.591,256.956z M411.842,256.956
				c0-1.995,1.622-3.62,3.617-3.62c1.997,0,3.617,1.625,3.617,3.62c0,1.998-1.62,3.617-3.617,3.617
				C413.464,260.573,411.842,258.954,411.842,256.956z"/>
		</g>
		<g>
			<path style="fill:#A9CBF7;" d="M43.717,210.661c0,3.236,2.634,5.871,5.868,5.871c3.236,0,5.868-2.635,5.868-5.871
				c0-3.233-2.632-5.871-5.868-5.871C46.352,204.79,43.717,207.427,43.717,210.661z M45.968,210.661c0-1.995,1.622-3.62,3.617-3.62
				c1.997,0,3.617,1.625,3.617,3.62c0,1.998-1.62,3.617-3.617,3.617C47.59,214.277,45.968,212.658,45.968,210.661z"/>
		</g>
		<g>
			<path style="fill:#A9CBF7;" d="M50.075,233.108c-0.822,0-1.48,0.67-1.48,1.485c0,0.825,0.658,1.474,1.48,1.474h14.792
				c0.819,0,1.482-0.649,1.482-1.474c0-0.815-0.664-1.485-1.482-1.485H50.075z"/>
		</g>
		<g>
			<path style="fill:#A9CBF7;" d="M71.209,233.108c-0.813,0-1.48,0.67-1.48,1.485c0,0.825,0.667,1.474,1.48,1.474h2.715
				c0.819,0,1.477-0.649,1.477-1.474c0-0.815-0.658-1.485-1.477-1.485H71.209z"/>
		</g>
		<g>
			<g>
				<path style="fill:#A9CBF7;" d="M411.178,327.258c-0.822,0-1.48,0.67-1.48,1.485c0,0.825,0.658,1.474,1.48,1.474h14.792
					c0.819,0,1.482-0.649,1.482-1.474c0-0.815-0.664-1.485-1.482-1.485H411.178z"/>
			</g>
			<g>
				<path style="fill:#A9CBF7;" d="M432.311,327.258c-0.813,0-1.48,0.67-1.48,1.485c0,0.825,0.667,1.474,1.48,1.474h2.715
					c0.819,0,1.477-0.649,1.477-1.474c0-0.815-0.658-1.485-1.477-1.485H432.311z"/>
			</g>
		</g>
		<g>
			<g>
				<path style="fill:#A9CBF7;" d="M133.145,191.235c-0.822,0-1.48,0.67-1.48,1.485c0,0.825,0.658,1.474,1.48,1.474h14.792
					c0.819,0,1.482-0.649,1.482-1.474c0-0.815-0.664-1.485-1.482-1.485H133.145z"/>
			</g>
			<g>
				<path style="fill:#A9CBF7;" d="M154.278,191.235c-0.813,0-1.48,0.67-1.48,1.485c0,0.825,0.667,1.474,1.48,1.474h2.715
					c0.819,0,1.477-0.649,1.477-1.474c0-0.815-0.658-1.485-1.477-1.485H154.278z"/>
			</g>
		</g>
	</g>
	<g>
		<g>
			<path style="fill:#77AAD8;" d="M256.891,87.698l0.573-1.729l-4.011-2.695l-2.978,1.926c-1.292-1.072-2.737-1.882-4.272-2.43
				l0.137-3.544l-4.982-2.427l-0.573,1.729l-0.743,3.468c-1.624,0.153-3.224,0.58-4.741,1.298l-2.41-2.602l-3.852,1.709
				l-0.573,1.729l1.926,2.978c-1.066,1.288-1.881,2.737-2.431,4.271l-2.971-1.866l-0.573,1.729l-0.697,5.554l3.468,0.744
				c0.153,1.624,0.58,3.225,1.299,4.741l-2.029,0.68l-0.573,1.729l3.437,4.425l2.979-1.926c1.287,1.067,2.737,1.882,4.273,2.432
				l-0.137,3.544l5.555,0.698l0.573-1.729l0.171-1.738c1.623-0.154,3.229-0.585,4.741-1.3l2.409,2.602l4.426-3.437l0.573-1.729
				l-2.499-1.249c1.072-1.292,1.881-2.737,2.431-4.273l3.544,0.137l0.573-1.729l0.125-3.826l-3.469-0.743
				c-0.152-1.623-0.584-3.229-1.298-4.74L256.891,87.698z M246.812,103.177c-3.856,2.996-9.411,2.298-12.407-1.558
				c-2.996-3.856-2.298-9.411,1.558-12.407c3.857-2.996,9.412-2.298,12.408,1.559C251.366,94.627,250.668,100.182,246.812,103.177z"
				/>
			<path style="fill:#93BBE5;" d="M257.464,85.969l-3.437-4.424l-2.978,1.926c-1.292-1.072-2.737-1.882-4.272-2.431l0.137-3.544
				l-5.556-0.698l-0.743,3.468c-1.624,0.153-3.224,0.58-4.741,1.298l-2.41-2.602l-4.425,3.438l1.926,2.978
				c-1.066,1.288-1.881,2.737-2.431,4.271l-3.544-0.137l-0.697,5.554l3.468,0.744c0.153,1.624,0.58,3.224,1.299,4.741l-2.603,2.41
				l3.437,4.425l2.979-1.926c1.287,1.067,2.737,1.882,4.273,2.432l-0.137,3.544l5.554,0.698l0.744-3.468
				c1.624-0.153,3.229-0.584,4.741-1.299l2.409,2.602l4.425-3.437l-1.926-2.978c1.072-1.292,1.882-2.737,2.431-4.273l3.543,0.137
				l0.698-5.555l-3.469-0.743c-0.152-1.623-0.584-3.229-1.298-4.74L257.464,85.969z M247.385,101.449
				c-3.855,2.996-9.411,2.298-12.407-1.558s-2.298-9.411,1.558-12.407c3.857-2.995,9.412-2.298,12.408,1.559
				C251.939,92.898,251.242,98.453,247.385,101.449z"/>
		</g>
		<g>
			<path style="fill:#D17E11;" d="M257.558,52.147l0.432-1.777l-2.91-3.272l-3.319,1.287c-1.052-1.317-2.307-2.406-3.705-3.258
				l0.856-3.456l-5.319-1.816l-1.436,3.258c-1.627-0.18-3.287-0.086-4.924,0.312l-1.84-3.048l-4.617,0.703l-0.432,1.777l1.287,3.319
				c-1.31,1.049-2.406,2.307-3.259,3.704l-3.456-0.855l-1.384,3.541l-0.432,1.777l3.258,1.437c-0.18,1.627-0.085,3.288,0.313,4.924
				l-2.617,0.062l-0.432,1.777l2.478,5.049l3.32-1.287c1.048,1.311,2.307,2.406,3.705,3.259l-0.856,3.455l5.318,1.816l1.436-3.257
				c1.627,0.179,3.293,0.082,4.924-0.313l1.839,3.048l5.049-2.479l0.432-1.777l-1.719-1.542c1.316-1.052,2.406-2.308,3.259-3.706
				l3.455,0.856l1.816-5.318l0.431-1.777l-3.69,0.341c0.181-1.626,0.083-3.292-0.312-4.923L257.558,52.147z M244.501,65.31
				c-4.398,2.16-9.716,0.344-11.875-4.054c-2.16-4.399-0.344-9.716,4.054-11.876c4.399-2.159,9.716-0.345,11.876,4.055
				C250.715,57.834,248.9,63.151,244.501,65.31z"/>
			<path style="fill:#F89D13;" d="M257.99,50.37l-2.479-5.048l-3.319,1.287c-1.052-1.316-2.307-2.406-3.705-3.258l0.856-3.456
				l-5.319-1.816l-1.436,3.258c-1.628-0.181-3.287-0.086-4.924,0.312l-1.84-3.048l-5.049,2.48l1.287,3.319
				c-1.31,1.049-2.405,2.308-3.258,3.704l-3.456-0.855l-1.815,5.318l3.258,1.437c-0.18,1.627-0.085,3.288,0.313,4.924l-3.048,1.839
				l2.478,5.049l3.32-1.287c1.049,1.311,2.307,2.406,3.705,3.26l-0.856,3.455l5.318,1.815l1.436-3.257
				c1.627,0.18,3.293,0.082,4.924-0.313l1.839,3.048l5.049-2.479l-1.287-3.319c1.316-1.052,2.406-2.308,3.259-3.705l3.455,0.856
				l1.816-5.318l-3.258-1.436c0.181-1.626,0.083-3.292-0.312-4.923L257.99,50.37z M244.932,63.533
				c-4.398,2.16-9.716,0.344-11.875-4.054c-2.16-4.398-0.344-9.716,4.054-11.876c4.4-2.159,9.716-0.344,11.876,4.055
				C251.147,56.057,249.332,61.374,244.932,63.533z"/>
		</g>
		<g>
			<path style="fill:#296ED3;" d="M294.031,60.727l0.694-2.095l-6.133-1.966l-2.859,3.208c-1.854-0.836-3.802-1.317-5.772-1.464
				l-0.98-4.184l-6.019-1.122l-0.695,2.095l0.249,4.29c-1.848,0.701-3.58,1.715-5.12,3.043l-3.652-2.264l-3.367,3.345l-0.695,2.095
				l3.208,2.859c-0.831,1.847-1.316,3.802-1.465,5.771l-3.489-1.114l-0.694,2.095l0.973,6.712l4.29-0.247
				c0.701,1.847,1.716,3.579,3.043,5.119l-1.57,1.557l-0.694,2.095l5.438,4.062l2.86-3.208c1.847,0.832,3.802,1.317,5.773,1.465
				l0.98,4.183l6.712-0.973l0.695-2.095l-0.942-2.194c1.847-0.702,3.583-1.722,5.119-3.044l3.652,2.264l4.063-5.439l0.695-2.095
				l-3.903-0.764c0.836-1.854,1.317-3.803,1.464-5.773l4.183-0.98l0.695-2.095L299.1,69.25l-4.291,0.248
				c-0.699-1.847-1.721-3.583-3.042-5.119L294.031,60.727z M287.238,82.049c-3.538,4.739-10.25,5.711-14.989,2.173
				c-4.739-3.539-5.712-10.25-2.174-14.99c3.54-4.739,10.251-5.712,14.991-2.172C289.805,70.599,290.778,77.31,287.238,82.049z"/>
			<path style="fill:#357DED;" d="M294.725,58.632l-5.439-4.062l-2.859,3.208c-1.854-0.836-3.802-1.317-5.772-1.464l-0.98-4.184
				l-6.714,0.973l0.249,4.29c-1.848,0.701-3.579,1.715-5.12,3.042l-3.652-2.264l-4.062,5.44l3.208,2.859
				c-0.831,1.847-1.316,3.802-1.465,5.771l-4.184,0.981l0.973,6.712l4.29-0.247c0.701,1.847,1.716,3.579,3.043,5.119l-2.264,3.652
				l5.439,4.063l2.859-3.209c1.847,0.832,3.802,1.317,5.773,1.465l0.98,4.183l6.712-0.973l-0.247-4.289
				c1.847-0.702,3.583-1.722,5.119-3.044l3.652,2.264l4.063-5.439l-3.208-2.859c0.836-1.854,1.317-3.803,1.464-5.773l4.183-0.98
				l-0.972-6.713l-4.291,0.248c-0.699-1.847-1.721-3.583-3.042-5.119L294.725,58.632z M287.932,79.954
				c-3.538,4.739-10.25,5.712-14.989,2.173c-4.739-3.539-5.712-10.25-2.173-14.989c3.54-4.739,10.251-5.712,14.991-2.173
				C290.499,68.504,291.472,75.215,287.932,79.954z"/>
		</g>
	</g>
	<g>
		<g>
			<path style="fill:#357DED;" d="M88.541,73.895h70.424c1.798,0,3.256,1.46,3.256,3.259v34.121c0,1.798-1.458,3.258-3.256,3.258
				H88.541c-1.799,0-3.257-1.46-3.257-3.258V77.153C85.285,75.355,86.742,73.895,88.541,73.895z"/>
			<path style="fill:#AACAF9;" d="M85.285,83.484v33.476c0,1.798,1.458,3.259,3.257,3.259h70.424c1.798,0,3.256-1.46,3.256-3.259
				V83.484H85.285z"/>
		</g>
		<path style="fill:#184785;" d="M97.175,78.869c0,1.38-1.119,2.498-2.498,2.498c-1.38,0-2.499-1.118-2.499-2.498
			c0-1.381,1.119-2.499,2.499-2.499C96.056,76.37,97.175,77.489,97.175,78.869z"/>
		<path style="fill:#184785;" d="M106.689,78.869c0,1.38-1.119,2.498-2.499,2.498c-1.38,0-2.499-1.118-2.499-2.498
			c0-1.381,1.119-2.499,2.499-2.499C105.571,76.37,106.689,77.489,106.689,78.869z"/>
	</g>
</g>
<g id="TEXTS">
	<text transform="matrix(1 0 0 1 104.1903 108.2436)" style="fill:#184785; font-family:'Montserrat-Bold'; font-size:24.9731px;">{...}</text>
</g>
</svg>
